<?xml version="1.0" encoding="UTF-8" standalone="no"?><!DOCTYPE svg PUBLIC "-//W3C//DTD SVG 1.1//EN" "http://www.w3.org/Graphics/SVG/1.1/DTD/svg11.dtd"><svg width="100%" height="100%" viewBox="0 0 720 204" version="1.1" xmlns="http://www.w3.org/2000/svg" xmlns:xlink="http://www.w3.org/1999/xlink" xml:space="preserve" xmlns:serif="http://www.serif.com/" style="fill-rule:evenodd;clip-rule:evenodd;stroke-linecap:round;stroke-linejoin:round;stroke-miterlimit:1.5;"><rect id="Artboard2" x="0" y="0" width="719.808" height="203.613" style="fill:none;"/><g><path d="M41.253,166.121c-0.822,0 -1.556,-0.323 -2.201,-0.968c-0.646,-0.646 -0.969,-1.38 -0.969,-2.201l0,-61.453c0,-0.939 0.323,-1.732 0.969,-2.377c0.645,-0.646 1.379,-0.969 2.201,-0.969l38.914,0c4.461,0 8.305,-1.585 11.534,-4.754c3.228,-3.17 4.842,-6.985 4.842,-11.446c0,-4.578 -1.614,-8.452 -4.842,-11.621c-3.229,-3.17 -7.073,-4.754 -11.534,-4.754l-38.914,0c-0.822,0 -1.556,-0.323 -2.201,-0.969c-0.646,-0.645 -0.969,-1.438 -0.969,-2.377l0,-16.199c0,-0.94 0.323,-1.732 0.969,-2.378c0.645,-0.645 1.379,-0.968 2.201,-0.968l38.914,0c7.043,0 13.558,1.761 19.545,5.282c5.987,3.522 10.741,8.306 14.263,14.351c3.522,6.046 5.283,12.59 5.283,19.633c0,7.044 -1.761,13.559 -5.283,19.546c-3.522,5.986 -8.276,10.741 -14.263,14.262c-5.987,3.522 -12.502,5.283 -19.545,5.283l-18.665,0c-1.291,0 -2.171,0.176 -2.641,0.528c-0.469,0.352 -0.704,1.057 -0.704,2.113l0,39.267c0,0.939 -0.323,1.702 -0.969,2.289c-0.645,0.587 -1.438,0.88 -2.377,0.88l-13.558,0Z" style="fill-rule:nonzero;"/><path d="M150.776,166.121c-0.939,0 -1.731,-0.293 -2.377,-0.88c-0.645,-0.587 -0.968,-1.35 -0.968,-2.289l0,-61.453c0,-0.939 0.323,-1.732 0.968,-2.377c0.646,-0.646 1.438,-0.969 2.377,-0.969l36.449,0c4.696,0 8.658,-1.585 11.886,-4.754c3.228,-3.17 4.842,-6.985 4.842,-11.446c0,-4.578 -1.614,-8.452 -4.842,-11.621c-3.228,-3.17 -7.19,-4.754 -11.886,-4.754l-14.79,0c-1.292,0 -2.378,0.44 -3.258,1.32c-0.88,0.881 -1.321,1.908 -1.321,3.082l0,4.402c0,1.174 -0.41,2.201 -1.232,3.081c-0.822,0.881 -1.878,1.321 -3.17,1.321l-11.621,0c-1.174,0 -2.201,-0.44 -3.082,-1.321c-0.88,-0.88 -1.32,-1.907 -1.32,-3.081l0,-28.349c0,-0.94 0.323,-1.732 0.968,-2.378c0.646,-0.645 1.438,-0.968 2.377,-0.968l36.449,0c7.279,0 13.97,1.761 20.074,5.282c6.104,3.522 10.946,8.276 14.527,14.263c3.58,5.987 5.37,12.561 5.37,19.721c0,6.105 -1.379,11.857 -4.138,17.257c-2.758,5.399 -6.544,9.919 -11.357,13.558c-0.704,0.47 -1.056,1.056 -1.056,1.761c0,0.704 0.058,1.291 0.176,1.761l20.425,45.605c0.47,0.822 0.705,1.585 0.705,2.289c0,1.291 -0.822,1.937 -2.466,1.937l-14.438,0c-1.292,0 -2.26,-0.117 -2.906,-0.352c-0.645,-0.235 -1.203,-0.822 -1.673,-1.761l-18.312,-41.203c-0.352,-0.705 -0.822,-1.174 -1.409,-1.409c-0.587,-0.235 -1.761,-0.352 -3.522,-0.352l-14.967,0c-1.408,0 -2.494,0.205 -3.257,0.616c-0.763,0.411 -1.145,1.262 -1.145,2.553l0,38.739c0,0.939 -0.322,1.702 -0.968,2.289c-0.646,0.587 -1.438,0.88 -2.377,0.88l-13.735,0Z" style="fill-rule:nonzero;"/><path d="M266.991,166.121c-0.939,0 -1.731,-0.323 -2.377,-0.968c-0.646,-0.646 -0.969,-1.38 -0.969,-2.201l0,-116.919c0,-0.94 0.353,-1.732 1.057,-2.378c0.704,-0.645 1.467,-0.968 2.289,-0.968l17.608,0c0.822,0 1.556,0.323 2.201,0.968c0.646,0.646 0.969,1.438 0.969,2.378l0,116.919c0,0.821 -0.294,1.555 -0.881,2.201c-0.587,0.645 -1.35,0.968 -2.289,0.968l-17.608,0Z" style="fill-rule:nonzero;"/><path d="M422.648,43.215c0.822,0 1.526,0.323 2.113,0.969c0.587,0.645 0.881,1.438 0.881,2.377l0,116.214c0,0.94 -0.294,1.703 -0.881,2.29c-0.587,0.587 -1.291,0.88 -2.113,0.88l-17.432,0c-0.822,0 -1.526,-0.293 -2.113,-0.88c-0.587,-0.587 -0.88,-1.35 -0.88,-2.29l0,-69.728c0,-1.057 -0.235,-1.585 -0.705,-1.585c-0.352,0 -0.88,0.411 -1.584,1.233c-1.879,2.817 -4.96,7.219 -9.245,13.206c-4.284,5.987 -7.425,10.33 -9.42,13.03c-1.174,1.526 -2.143,2.524 -2.906,2.993c-0.763,0.47 -2.025,0.705 -3.785,0.705l-2.994,0c-2.113,0 -3.551,-0.176 -4.314,-0.529c-0.763,-0.352 -1.614,-1.115 -2.553,-2.289l-19.193,-26.94c-0.47,-1.057 -0.998,-1.585 -1.585,-1.585c-0.469,0 -0.704,0.528 -0.704,1.585l0,21.834c0,0.939 -0.294,1.702 -0.88,2.289c-0.587,0.587 -1.292,0.88 -2.113,0.88l-17.257,0c-0.821,0 -1.555,-0.322 -2.201,-0.968c-0.645,-0.646 -0.968,-1.379 -0.968,-2.201l0,-68.144c0,-0.939 0.323,-1.732 0.968,-2.377c0.646,-0.646 1.38,-0.969 2.201,-0.969l17.609,0c0.352,0 0.792,0.206 1.32,0.617c0.529,0.41 0.91,0.851 1.145,1.32l26.764,44.197c0.118,0.235 0.441,0.587 0.969,1.056c0.528,0.47 1.203,0.705 2.025,0.705l0.176,0c0.822,0 1.467,-0.294 1.937,-0.881c0.469,-0.587 0.763,-0.997 0.88,-1.232l26.589,-43.669c0.352,-0.587 0.704,-1.086 1.056,-1.496c0.352,-0.411 0.822,-0.617 1.409,-0.617l17.784,0Z" style="fill-rule:nonzero;"/><path d="M459.802,64.521c-0.822,0 -1.556,-0.323 -2.201,-0.968c-0.646,-0.646 -0.969,-1.438 -0.969,-2.377l0,-15.143c0,-0.94 0.323,-1.703 0.969,-2.29c0.645,-0.586 1.379,-0.88 2.201,-0.88l81.702,0c0.939,0 1.732,0.323 2.377,0.969c0.646,0.645 0.969,1.379 0.969,2.201l0,15.143c0,0.821 -0.323,1.584 -0.969,2.289c-0.645,0.704 -1.438,1.056 -2.377,1.056l-81.702,0Zm0,101.6c-0.822,0 -1.556,-0.323 -2.201,-0.968c-0.646,-0.646 -0.969,-1.38 -0.969,-2.201l0,-81.351c0,-0.939 0.323,-1.702 0.969,-2.289c0.645,-0.587 1.379,-0.88 2.201,-0.88l14.967,0c0.939,0 1.702,0.293 2.289,0.88c0.587,0.587 0.88,1.35 0.88,2.289l0,12.678c0,2.231 1.526,3.346 4.578,3.346l44.373,0c0.822,0 1.526,0.264 2.113,0.792c0.587,0.528 0.881,1.203 0.881,2.025l0,15.143c0,0.822 -0.294,1.497 -0.881,2.025c-0.587,0.528 -1.291,0.793 -2.113,0.793l-44.901,0c-2.7,0 -4.05,1.232 -4.05,3.697l0,19.193c0,0.822 0.352,1.585 1.057,2.289c0.704,0.705 1.467,1.057 2.289,1.057l60.572,0c0.94,0 1.703,0.293 2.289,0.88c0.587,0.587 0.881,1.35 0.881,2.289l0,15.144c0,0.821 -0.294,1.555 -0.881,2.201c-0.586,0.645 -1.349,0.968 -2.289,0.968l-82.054,0Z" style="fill-rule:nonzero;"/></g><g><circle cx="575.409" cy="58.053" r="14.695" style="fill:#427bc6;"/><circle cx="619.746" cy="103.634" r="14.695" style="fill:#427bc6;"/><circle cx="678.076" cy="133.979" r="14.695" style="fill:#427bc6;"/><circle cx="603.508" cy="151.95" r="14.695" style="fill:#427bc6;"/><circle cx="679.692" cy="58.848" r="14.695" style="fill:#427bc6;"/><path d="M574.166,58.177l47.041,45.524l58.683,33.135l-76.419,16l7.889,-49.135l68.53,-45.524" style="fill:none;stroke:#427bc6;stroke-width:4.17px;"/></g></svg>